# xmcd
#
# Track frame offsets:
# 150
# 23752
# 49562
# 76862
# 99665
# 122479
# 144501
# 167816
# 194648
# 213813
# 216204
# 240333
#
# Disc length: 3857 seconds
#
# Revision: 0
# Processed by: cddbd v1.5.2PL0 Copyright (c) Steve Scherf et al.
# Submitted via: Audion 3.0.2 (http://www.panic.com/audion/)
#
DISCID=9b0f0f0c
DTITLE=L'herbe folle - Au 12+1
DYEAR=1900
DGENRE=
TTITLE0=Par en vie
TTITLE1=La louise
TTITLE2=Lhâz grugn'
TTITLE3=Complainte de l'écolier
TTITLE4=La braderie des infos
TTITLE5=Comme un dimanche
TTITLE6=Les chats verts
TTITLE7=1, 2, 3
TTITLE8=Sous la grêle
TTITLE9=Debort les mous
TTITLE10=Debout les morts !
TTITLE11=Les colonies
EXTD=
EXTT0=
EXTT1=
EXTT2=
EXTT3=
EXTT4=
EXTT5=
EXTT6=
EXTT7=
EXTT8=
EXTT9=
EXTT10=
EXTT11=
PLAYORDER=
